<?xml version="1.0" encoding="utf-8"?>
<!-- Generator: Adobe Illustrator 23.0.0, SVG Export Plug-In . SVG Version: 6.00 Build 0)  -->
<svg version="1.1" xmlns="http://www.w3.org/2000/svg" xmlns:xlink="http://www.w3.org/1999/xlink" x="0px" y="0px"
	 viewBox="0 0 48 48" enable-background="new 0 0 48 48" xml:space="preserve">
<g id="_x5F_GRID" display="none">
	<g display="inline">
		<g>
			
				<rect x="22" y="-22" transform="matrix(6.123234e-17 -1 1 6.123234e-17 22 26)" opacity="0.2" fill="#FF00FF" width="4" height="48"/>
			
				<rect x="22.5" y="-22.5" transform="matrix(6.123234e-17 -1 1 6.123234e-17 22.5 25.5)" opacity="0.3" fill="#FF00FF" width="3" height="48"/>
		</g>
		<g>
			
				<rect x="22" y="22" transform="matrix(-1.836970e-16 1 -1 -1.836970e-16 70 22)" opacity="0.2" fill="#FF00FF" width="4" height="48"/>
			
				<rect x="22.5" y="22.5" transform="matrix(-1.836970e-16 1 -1 -1.836970e-16 70.5 22.5)" opacity="0.3" fill="#FF00FF" width="3" height="48"/>
		</g>
		<g>
			<rect x="44" opacity="0.2" fill="#FF00FF" width="4" height="48"/>
			<rect x="45" opacity="0.3" fill="#FF00FF" width="3" height="48"/>
		</g>
		<g>
			<rect transform="matrix(-1 -1.224647e-16 1.224647e-16 -1 4 48)" opacity="0.2" fill="#FF00FF" width="4" height="48"/>
			<rect transform="matrix(-1 -1.224647e-16 1.224647e-16 -1 3 48)" opacity="0.3" fill="#FF00FF" width="3" height="48"/>
		</g>
	</g>
</g>
<g id="ICONS">
	<path fill="#FFFFFF" stroke="#979593" stroke-miterlimit="10" d="M33.0858,3.5H13.5c-0.5523,0-1,0.4477-1,1v39
		c0,0.5523,0.4477,1,1,1h29c0.5523,0,1-0.4477,1-1V13.9142c0-0.2652-0.1054-0.5196-0.2929-0.7071l-9.4142-9.4142
		C33.6054,3.6054,33.351,3.5,33.0858,3.5z"/>
	<path fill="none" stroke="#979593" stroke-miterlimit="10" d="M33.5,3.5v9c0,0.5523,0.4477,1,1,1h9"/>
	<path fill="#C8C6C4" d="M39.5,38H32h-8h-7.5c-0.2764,0-0.5,0.2236-0.5,0.5s0.2236,0.5,0.5,0.5H24h8h7.5
		c0.2764,0,0.5-0.2236,0.5-0.5S39.7764,38,39.5,38z"/>
	<path fill="#C8C6C4" d="M39.5,35H32h-8h-7.5c-0.2764,0-0.5,0.2236-0.5,0.5s0.2236,0.5,0.5,0.5H24h8h7.5
		c0.2764,0,0.5-0.2236,0.5-0.5S39.7764,35,39.5,35z"/>
	<path fill="#F5BA9D" d="M30,17c3.866,0,7,3.134,7,7h-7V17z"/>
	<path fill="#C8C6C4" d="M37,25c0,4.943-4.4829,8.8389-9.6049,7.8438c-3.1193-0.606-5.6329-3.1196-6.2389-6.2388
		C20.161,21.483,24.057,17,29,17v8H37z"/>
	<g>
		<path fill="#C43E1C" d="M6,37h18c1.1046,0,2-0.8954,2-2V17c0-1.1046-0.8954-2-2-2H6c-1.1046,0-2,0.8954-2,2v18
			C4,36.1046,4.8954,37,6,37z"/>
	</g>
	<g>
		<g>
			<path fill="#F9F7F7" d="M15.6683,20c1.4003,0,2.4726,0.3209,3.2161,0.9619C19.6288,21.6037,20,22.5331,20,23.749
				c0,0.7807-0.1837,1.4758-0.5511,2.0842c-0.3683,0.6074-0.8915,1.08-1.5696,1.4177c-0.679,0.3377-1.4647,0.506-2.3592,0.506
				H13.289V32H11V20H15.6683z M13.289,25.9247h1.9697c0.7694,0,1.3493-0.1772,1.7417-0.5316s0.5886-0.8713,0.5886-1.5525
				c0-1.3212-0.7521-1.9828-2.2563-1.9828H13.289V25.9247z"/>
		</g>
	</g>
</g>
<g id="CENTERED_x5F_MARGINS" display="none">
</g>
<g id="_x5F_FILE_x5F_CENTER" display="none">
</g>
<g id="_x5F_RIGHT_x5F_MARGIN" display="none" opacity="0.5">
	<g display="inline">
		<rect x="40" fill="#00FFFF" width="8" height="48"/>
	</g>
	<g display="inline">
		<rect x="40" opacity="0.3" fill="#00FFFF" width="8" height="48"/>
	</g>
</g>
<g id="_x5F_THREE_x5F_HEIGHTS" display="none">
	<rect x="24" y="18" display="inline" opacity="0.2" fill="#F7931E" width="24" height="23"/>
</g>
<g id="FOLDER_x5F_INCIDACTORS" display="none">
</g>
</svg>
