<svg width="51" height="50" viewBox="0 0 51 50" fill="none" xmlns="http://www.w3.org/2000/svg">
<path d="M27.8044 44.1906C27.8044 45.4806 26.7055 46.5018 25.3319 46.5018C23.9583 46.5018 22.8594 45.4806 22.8594 44.1906V42.5781H27.8044V44.1906Z" fill="#ABC36A"/>
<path d="M25.3327 3.50391C32.3107 3.50391 37.97 9.09386 37.97 15.9201C37.97 22.9613 32.1459 25.6487 32.1459 33.4424H18.5195C18.5195 25.6487 12.6953 22.9613 12.6953 15.9201C12.6953 9.09386 18.3547 3.50391 25.3327 3.50391Z" fill="#E6F6A4"/>
<path d="M28.6832 18.3398H22.0898C21.6502 18.3398 21.2656 18.7161 21.2656 19.1461C21.2656 19.5761 21.6502 19.9523 22.0898 19.9523H24.5074V30.2722C24.5074 30.7022 24.892 31.0785 25.3316 31.0785C25.7711 31.0785 26.1557 30.7022 26.1557 30.2722V19.9523H28.6832C29.1228 19.9523 29.5074 19.5761 29.5074 19.1461C29.5074 18.7161 29.1777 18.3398 28.6832 18.3398Z" fill="#ABC36A"/>
<path d="M1.81581 17.5305H1.10152C0.661959 17.5305 0.277344 17.1542 0.277344 16.7242C0.277344 16.2942 0.661959 15.918 1.10152 15.918H1.81581C2.25537 15.918 2.63998 16.2942 2.63998 16.7242C2.63998 17.1542 2.31031 17.5305 1.81581 17.5305Z" fill="#FFD066"/>
<path d="M7.25399 17.5305H4.72652C4.28696 17.5305 3.90234 17.1542 3.90234 16.7242C3.90234 16.2942 4.28696 15.918 4.72652 15.918H7.25399C7.69355 15.918 8.07817 16.2942 8.07817 16.7242C8.07817 17.1542 7.69355 17.5305 7.25399 17.5305Z" fill="#FFD066"/>
<path d="M5.05667 9.57981C4.89184 9.57981 4.727 9.52606 4.61711 9.47231L2.69403 8.23607C2.25447 7.96733 2.14458 7.48358 2.41931 7.05358C2.5292 6.83858 2.74898 6.73109 2.96876 6.67734C3.18854 6.62359 3.40832 6.67734 3.6281 6.78484L5.55118 7.96733C5.93579 8.23607 6.04568 8.71982 5.8259 9.14982C5.60612 9.41856 5.38634 9.57981 5.05667 9.57981Z" fill="#FFD066"/>
<path d="M9.06675 11.9479C8.90192 11.9479 8.73708 11.8942 8.62719 11.8404L6.70412 10.6579C6.3195 10.3892 6.15467 9.90546 6.42939 9.47546C6.53928 9.26046 6.75906 9.15296 6.97884 9.09921C7.19862 9.04546 7.4184 9.09921 7.63818 9.20671L9.56126 10.3892C9.94587 10.6579 10.1107 11.1417 9.83598 11.5717C9.6162 11.7867 9.34148 11.9479 9.06675 11.9479Z" fill="#FFD066"/>
<path d="M8.08118 23.4973C7.80645 23.4973 7.53173 23.3361 7.36689 23.1211C7.09217 22.7448 7.257 22.2073 7.64162 21.9386L8.63063 21.3473C8.85041 21.2398 9.07019 21.1861 9.28997 21.2398C9.50975 21.2936 9.72953 21.4011 9.83942 21.6161C10.1141 21.9923 9.94931 22.5298 9.56469 22.7986L8.52074 23.3361C8.41085 23.4436 8.24601 23.4973 8.08118 23.4973Z" fill="#FFD066"/>
<path d="M3.13586 26.5117C2.86114 26.5117 2.58641 26.3504 2.42158 26.1354C2.14685 25.7592 2.31169 25.2217 2.6963 24.953L5.27872 23.3942C5.4985 23.2867 5.71828 23.233 5.93806 23.2867C6.15784 23.3405 6.37762 23.448 6.48751 23.663C6.76224 24.0392 6.5974 24.5767 6.21279 24.8455L3.57542 26.3504C3.46553 26.4579 3.3007 26.5117 3.13586 26.5117Z" fill="#FFD066"/>
<path d="M49.4525 16.9914H48.7382C48.2987 16.9914 47.9141 16.6151 47.9141 16.1851C47.9141 15.7552 48.2987 15.3789 48.7382 15.3789H49.4525C49.8921 15.3789 50.2767 15.7552 50.2767 16.1851C50.2767 16.6151 49.8921 16.9914 49.4525 16.9914Z" fill="#FFD066"/>
<path d="M45.8282 16.9914H43.3007C42.8612 16.9914 42.4766 16.6151 42.4766 16.1851C42.4766 15.7552 42.8612 15.3789 43.3007 15.3789H45.8282C46.2678 15.3789 46.6524 15.7552 46.6524 16.1851C46.6524 16.6151 46.2678 16.9914 45.8282 16.9914Z" fill="#FFD066"/>
<path d="M47.584 26.5093C47.4192 26.5093 47.2544 26.4556 47.1445 26.4018L45.4961 25.3806C45.1115 25.1119 45.0016 24.6281 45.2214 24.1981C45.3313 23.9831 45.5511 23.8756 45.7708 23.8219C45.9906 23.7681 46.2104 23.8219 46.4302 23.9294L48.0785 24.9506C48.4631 25.2194 48.573 25.7031 48.3533 26.1331C48.1335 26.3481 47.8587 26.5093 47.584 26.5093Z" fill="#FFD066"/>
<path d="M43.5746 24.0886C43.4097 24.0886 43.2449 24.0348 43.135 23.9811L41.2119 22.7986C40.8273 22.5298 40.6625 22.0461 40.9372 21.6161C41.0471 21.4011 41.2669 21.2936 41.4867 21.2398C41.7064 21.1861 41.9262 21.2398 42.146 21.3473L44.0691 22.5298C44.4537 22.7986 44.6185 23.2823 44.3438 23.7123C44.124 23.9273 43.8493 24.0886 43.5746 24.0886Z" fill="#FFD066"/>
<path d="M41.6515 11.9387C41.3768 11.9387 41.102 11.7775 40.9372 11.5625C40.6625 11.1862 40.8273 10.6487 41.2119 10.38L42.2009 9.78874C42.4207 9.68124 42.6405 9.62749 42.8603 9.68124C43.0801 9.73499 43.2998 9.84249 43.4097 10.0575C43.6845 10.4337 43.5196 10.9712 43.135 11.24L42.146 11.8312C41.9812 11.885 41.8163 11.9387 41.6515 11.9387Z" fill="#FFD066"/>
<path d="M44.839 10.0075C44.5643 10.0075 44.2895 9.84622 44.1247 9.63122C43.85 9.25498 44.0148 8.71748 44.3994 8.44873L46.5423 7.31999C46.7621 7.21249 46.9818 7.15874 47.2016 7.21249C47.4214 7.26624 47.6412 7.37374 47.7511 7.58874C48.0258 7.96499 47.861 8.50248 47.4764 8.77123L45.3335 9.89997C45.1687 10.0075 45.0038 10.0075 44.839 10.0075Z" fill="#FFD066"/>
<path fill-rule="evenodd" clip-rule="evenodd" d="M32.2011 38.0639C32.2011 41.7726 29.1242 44.8363 25.333 44.8363C21.5418 44.8363 18.4648 41.8263 18.4648 38.0639V33.4414H32.1462L32.2011 38.0639Z" fill="#CCE17F"/>
<path d="M20.7725 37.2078H18.4648V36.1328H20.7725C20.9923 36.1328 21.2121 36.2941 21.2121 36.5091V36.8316C21.2121 37.0466 21.0473 37.2078 20.7725 37.2078Z" fill="#ABC36A"/>
<path d="M32.1988 37.2048H24.3966C24.1768 37.2048 23.957 37.0436 23.957 36.8286V36.5598C23.957 36.3448 24.1768 36.1836 24.3966 36.1836H32.1988V37.2048Z" fill="#ABC36A"/>
<path d="M25.2218 40.9666H24.9471C24.7273 40.9666 24.5625 40.8053 24.5625 40.5903V40.3216C24.5625 40.1066 24.7273 39.9453 24.9471 39.9453H25.2218C25.4416 39.9453 25.6065 40.1066 25.6065 40.3216V40.5903C25.6065 40.8053 25.4416 40.9666 25.2218 40.9666Z" fill="#ABC36A"/>
<path d="M23.0258 40.9695H19.6192C19.6192 40.9695 19.2896 40.3783 19.1797 39.8945H22.861C23.2456 39.8945 23.4105 40.0558 23.4105 40.2708V40.5933C23.4105 40.8083 23.2456 40.9695 23.0258 40.9695Z" fill="#ABC36A"/>
<path d="M31.2673 40.9666H28.7948C28.575 40.9666 28.4102 40.8053 28.4102 40.5903V40.3216C28.4102 40.1066 28.575 39.9453 28.7948 39.9453H31.7618C31.4871 40.5366 31.2673 40.9666 31.2673 40.9666Z" fill="#ABC36A"/>
</svg>
