<svg width="30" height="32" viewBox="0 0 30 32" fill="none" xmlns="http://www.w3.org/2000/svg">
<path d="M19.8898 0.463261C18.389 0.15442 16.7303 0 14.9926 0C6.77805 0 0.933069 3.7833 0.0642202 10.0373C-0.804628 16.0597 7.25197 21.0784 17.5992 18.7621C22.4963 17.6811 26.1297 21.9277 26.1297 21.9277L25.2608 18.1444C25.4188 17.5267 25.8137 17.0634 26.3666 16.8318C27.7094 16.3686 28.4993 15.5964 29.1312 14.5927C29.763 13.4346 30 11.8904 30 10.1145C30 5.01866 25.8137 1.62141 19.8898 0.463261Z" fill="#B8EDDB"/>
<path d="M9.93712 11.427C10.648 11.427 11.2009 10.8866 11.2009 10.1917C11.2009 9.49677 10.648 8.9563 9.93712 8.9563C9.22624 8.9563 8.67334 9.49677 8.67334 10.1917C8.67334 10.8866 9.22624 11.427 9.93712 11.427Z" fill="#62B798"/>
<path d="M14.9922 10.1919C15.703 10.1919 16.2559 9.65145 16.2559 8.95655C16.2559 8.26166 15.703 7.72119 14.9922 7.72119C14.2813 7.72119 13.7284 8.26166 13.7284 8.95655C13.6494 9.65145 14.2813 10.1919 14.9922 10.1919Z" fill="#62B798"/>
<path d="M20.0475 11.1179C20.7583 11.1179 21.3113 10.5775 21.3113 9.88258C21.3113 9.18769 20.7583 8.64722 20.0475 8.64722C19.3366 8.64722 18.7837 9.18769 18.7837 9.88258C18.7837 10.5775 19.3366 11.1179 20.0475 11.1179Z" fill="#62B798"/>
<path d="M18.468 23.4722C18.073 27.4099 13.8078 29.4174 9.0686 29.4174C8.75265 29.4174 8.35772 29.4174 8.04178 29.3402C7.64685 29.3402 7.3309 29.4946 7.09394 29.8035L6.30408 31.5793L5.75118 29.263C5.67219 28.9542 5.51422 28.7225 5.19827 28.6453C2.43376 27.4872 0.538086 25.0164 0.538086 22.2369C0.538086 18.2992 4.32943 16.0601 9.0686 16.0601C13.8078 16.0601 18.9419 18.8396 18.468 23.4722Z" fill="#62B798"/>
<path d="M11.7542 22.005H5.83025C5.5143 22.005 5.27734 21.7733 5.27734 21.4645V21.2329C5.27734 20.924 5.5143 20.6924 5.83025 20.6924H11.7542C12.0702 20.6924 12.3071 20.924 12.3071 21.2329V21.4645C12.3071 21.7733 12.0702 22.005 11.7542 22.005Z" fill="#B8EDDB"/>
<path d="M14.1234 24.6301H5.19792C4.88198 24.6301 4.64502 24.3984 4.64502 24.0896V23.858C4.64502 23.5491 4.88198 23.3175 5.19792 23.3175H14.1234C14.4393 23.3175 14.6763 23.5491 14.6763 23.858V24.0896C14.6763 24.3984 14.4393 24.6301 14.1234 24.6301Z" fill="#B8EDDB"/>
</svg>
