<svg width="30" height="36" viewBox="0 0 30 36" fill="none" xmlns="http://www.w3.org/2000/svg">
<path d="M27.7896 33.5524C27.7896 34.6576 26.9211 35.526 25.8948 35.526H4.18429C3.15797 35.526 2.28955 34.6576 2.28955 33.5524V33.2366H27.7896V33.5524Z" fill="#9ED8C5"/>
<path d="M30 30.9473C30 32.2105 28.9737 33.2368 27.7895 33.2368H2.21053C0.947368 33.2368 0 32.2105 0 30.9473V12.2368H30V30.9473Z" fill="#D8F4EA"/>
<path d="M30 9.39502H0V12.2371H30V9.39502Z" fill="#62B798"/>
<path d="M0 9.39453H30V5.8419C30 4.65769 28.9737 3.78927 27.7895 3.78927H2.21053C1.02632 3.71032 0 4.65769 0 5.8419V9.39453Z" fill="#9ED8C5"/>
<path fill-rule="evenodd" clip-rule="evenodd" d="M13.2629 3.78947V1.57895C13.2629 0.710526 14.0524 0 14.9998 0C15.9472 0 16.7366 0.710526 16.7366 1.57895V3.71053" fill="#FFD066"/>
<path fill-rule="evenodd" clip-rule="evenodd" d="M16.7371 3.78931V5.92089C16.7371 6.78931 15.9476 7.49983 15.0003 7.49983C14.0529 7.49983 13.2634 6.78931 13.2634 5.92089V3.78931" fill="#62B798"/>
<path fill-rule="evenodd" clip-rule="evenodd" d="M4.57886 3.78947V1.57895C4.57886 0.710526 5.36833 0 6.3157 0C7.26307 0 8.05254 0.710526 8.05254 1.57895V3.71053" fill="#FFD066"/>
<path fill-rule="evenodd" clip-rule="evenodd" d="M7.97393 3.78931V5.92089C7.97393 6.78931 7.18445 7.49983 6.23709 7.49983C5.28972 7.49983 4.50024 6.78931 4.50024 5.92089V3.78931" fill="#62B798"/>
<path fill-rule="evenodd" clip-rule="evenodd" d="M22.0259 3.78947V1.57895C22.0259 0.710526 22.8154 0 23.7627 0C24.7101 0 25.4996 0.710526 25.4996 1.57895V3.71053" fill="#FFD066"/>
<path fill-rule="evenodd" clip-rule="evenodd" d="M25.421 3.78931V5.92089C25.421 6.78931 24.6315 7.49983 23.6841 7.49983C22.7367 7.49983 21.9473 6.78931 21.9473 5.92089V3.78931" fill="#62B798"/>
<path d="M27.3155 16.6577H2.60498V17.4472H27.3155V16.6577Z" fill="#62B798"/>
<path d="M27.3155 22.2627H2.60498V23.0522H27.3155V22.2627Z" fill="#62B798"/>
<path d="M27.3155 27.7889H2.60498V28.5784H27.3155V27.7889Z" fill="#62B798"/>
<path d="M15.4736 14.2893H14.6052V30.9472H15.4736V14.2893Z" fill="#62B798"/>
<path d="M9.5525 14.2893H8.68408V30.9472H9.5525V14.2893Z" fill="#62B798"/>
<path d="M21.3152 14.2893H20.4468V30.9472H21.3152V14.2893Z" fill="#62B798"/>
<path d="M8.68398 17.447H3.63135V22.1839H8.68398V17.447Z" fill="#62B798"/>
<path d="M20.4472 17.447H15.3945V22.1839H20.4472V17.447Z" fill="#62B798"/>
<path d="M14.6049 23.0527H9.55225V27.7896H14.6049V23.0527Z" fill="#62B798"/>
<path d="M26.3686 23.0527H21.3159V27.7896H26.3686V23.0527Z" fill="#62B798"/>
<path d="M6.78989 19.8947L7.73725 19.0263C7.89515 18.8684 7.89515 18.6315 7.73725 18.4736C7.57936 18.3158 7.26357 18.3158 7.10567 18.4736L6.15831 19.3421L5.21094 18.4736C5.05304 18.3158 4.73725 18.3158 4.57936 18.4736C4.42146 18.6315 4.42146 18.8684 4.57936 19.0263L5.52673 19.8947L4.57936 20.7631C4.42146 20.921 4.42146 21.1579 4.57936 21.3158C4.73725 21.4736 5.05304 21.4736 5.21094 21.3158L6.15831 20.4473L7.10567 21.3158C7.26357 21.4736 7.57936 21.4736 7.73725 21.3158C7.89515 21.1579 7.89515 20.921 7.73725 20.7631L6.78989 19.8947Z" fill="#9ED8C5"/>
<path d="M18.5526 19.8947L19.4999 19.0263C19.6578 18.8684 19.6578 18.6315 19.4999 18.4736C19.3421 18.3158 19.0263 18.3158 18.8684 18.4736L17.921 19.3421L16.9736 18.4736C16.8157 18.3158 16.4999 18.3158 16.3421 18.4736C16.1842 18.6315 16.1842 18.8684 16.3421 19.0263L17.2894 19.8947L16.3421 20.7631C16.1842 20.921 16.1842 21.1579 16.3421 21.3158C16.4999 21.4736 16.8157 21.4736 16.9736 21.3158L17.921 20.4473L18.7894 21.3158C18.9473 21.4736 19.2631 21.4736 19.421 21.3158C19.5789 21.1579 19.5789 20.921 19.421 20.7631L18.5526 19.8947Z" fill="#9ED8C5"/>
<path d="M13.5786 24.0001C13.4207 23.8422 13.1049 23.8422 12.947 24.0001L11.9996 24.8686L11.0522 24.0001C10.8944 23.8422 10.5786 23.8422 10.4207 24.0001C10.2628 24.158 10.2628 24.3949 10.4207 24.5528L11.368 25.4212L10.4207 26.2896C10.2628 26.4475 10.2628 26.6843 10.4207 26.8422C10.5786 27.0001 10.8944 27.0001 11.0522 26.8422L11.9996 25.9738L12.868 26.8422C13.0259 27.0001 13.3417 27.0001 13.4996 26.8422C13.6575 26.6843 13.6575 26.4475 13.4996 26.2896L12.6312 25.4212L13.5786 24.5528C13.8154 24.3949 13.8154 24.158 13.5786 24.0001Z" fill="#9ED8C5"/>
<path d="M24.4732 25.4215L25.4206 24.5531C25.5785 24.3952 25.5785 24.1584 25.4206 24.0005C25.2627 23.8426 24.9469 23.8426 24.789 24.0005L23.8417 24.8689L22.8943 23.9215C22.7364 23.7636 22.4206 23.7636 22.2627 23.9215C22.1048 24.0794 22.1048 24.3163 22.2627 24.4742L23.2101 25.3426L22.2627 26.211C22.1048 26.3689 22.1048 26.6057 22.2627 26.7636C22.4206 26.9215 22.7364 26.9215 22.8943 26.7636L23.8417 25.8952L24.7101 26.7636C24.868 26.9215 25.1838 26.9215 25.3417 26.7636C25.4995 26.6057 25.4995 26.3689 25.3417 26.211L24.4732 25.4215Z" fill="#9ED8C5"/>
</svg>
