<svg width="30" height="32" viewBox="0 0 30 32" fill="none" xmlns="http://www.w3.org/2000/svg">
<path d="M29.4475 12.8715C29.3685 12.6316 29.2106 10.7928 28.8948 10.553L16.8159 0.479682C15.7896 -0.159894 14.3685 -0.159894 13.3422 0.479682L1.10537 10.553C0.789576 10.8728 0.631682 11.1126 0.552734 11.3525V14.1506L29.4475 13.9108V12.8715V12.8715Z" fill="#B8EDDB"/>
<path d="M1.73694 11.3525C1.26326 11.5124 0.868524 11.7523 0.552734 12.152C0.868524 11.7523 1.26326 11.4325 1.73694 11.3525Z" fill="#92DDED"/>
<path d="M13.0264 22.6253C13.9738 23.2649 15.3948 23.2649 16.4212 22.6253L29.2896 11.9124C28.8948 11.5127 28.3422 11.1929 27.6317 11.1929H2.36852C2.13168 11.1929 1.97379 11.1929 1.73694 11.2728C1.26326 11.4327 0.868524 11.6726 0.552734 12.0723C0.631682 12.3121 0.789576 12.552 1.10537 12.8718L13.0264 22.6253Z" fill="#62B798"/>
<path d="M24.0001 3.19791V27.182C24.0001 27.5818 23.6843 27.9815 23.2896 27.9815H9.00008H6.00008C5.60534 27.9815 5.28955 27.6617 5.28955 27.182V26.3026V3.19791C5.28955 2.79817 5.60534 2.39844 6.00008 2.39844H23.2106C23.6843 2.39844 24.0001 2.71823 24.0001 3.19791Z" fill="url(#paint0_radial)"/>
<path d="M13.6584 9.59399H7.2637C7.1058 9.59399 7.02686 9.67394 7.02686 9.83384V16.3895C7.02686 16.5494 7.1058 16.6293 7.2637 16.6293H13.6584C13.8163 16.6293 13.8953 16.5494 13.8953 16.3895V9.83384C13.8953 9.67394 13.8163 9.59399 13.6584 9.59399Z" fill="#62B798"/>
<path d="M22.1848 21.1862L7.02686 21.1062V20.3867L22.1058 20.4667V21.1862H22.1848Z" fill="#F2F2F2"/>
<path d="M22.1848 23.904L7.02686 23.824V23.1045L22.1848 23.1844V23.904Z" fill="#E1DFDD"/>
<path d="M22.1848 18.4677L7.02686 18.3877V17.6682H22.1058V18.4677H22.1848Z" fill="#F2F2F2"/>
<path d="M14.4473 14.95L22.1841 15.0299V15.7494L14.4473 15.6695V14.95Z" fill="#F2F2F2"/>
<path d="M14.4473 12.3115L22.1841 12.3915V13.111L14.4473 12.9511V12.3115Z" fill="#F2F2F2"/>
<path d="M14.4473 9.67334L22.1841 9.75329V10.4728L14.4473 10.3929V9.67334Z" fill="#F2F2F2"/>
<path d="M22.1058 7.67496H7.02686V6.87549H22.1058V7.67496Z" fill="#F2F2F2"/>
<path d="M29.2895 11.3525L16.4211 22.0654C15.3947 22.705 13.9737 22.705 13.0263 22.0654L1.10526 12.232C0.789474 11.9921 0.631579 11.6723 0.552632 11.4325C0.236842 11.9122 0 12.3918 0 13.0314V26.3826V29.1807C0 30.5398 1.02632 31.5791 2.36842 31.5791H6.47368H27.6316C28.8947 31.5791 30 30.5398 30 29.1807V24.4639V15.4298V13.0314C30 12.3119 29.7632 11.7523 29.2895 11.3525Z" fill="#B8EDDB"/>
<defs>
<radialGradient id="paint0_radial" cx="0" cy="0" r="1" gradientUnits="userSpaceOnUse" gradientTransform="translate(14.7896 26.2689) scale(12.6843 12.9192)">
<stop stop-color="#CCCCCC"/>
<stop offset="1" stop-color="#E6E6E6"/>
</radialGradient>
</defs>
</svg>
