<svg id="Layer_3" enable-background="new 0 0 64 64" height="512" viewBox="0 0 64 64" width="512" xmlns="http://www.w3.org/2000/svg"><path d="m10 18c-2.209 0-4 1.791-4 4v28c0 2.209 1.791 4 4 4h48c2.209 0 4-1.791 4-4v-28c0-2.209-1.791-4-4-4h-4" fill="#c66b60"/><path d="m6 40.574c4.769 5.147 11.957 8.426 20 8.426 14.359 0 26-10.447 26-23.334 0-2.686-.512-5.264-1.443-7.666h-40.557c-2.209 0-4 1.791-4 4z" fill="#e47c6e"/><path d="m20 12h-8c-1.105 0-2 .895-2 2v30c0 1.105.895 2 2 2h8c1.105 0 2-.895 2-2v-30c0-1.105-.895-2-2-2z" fill="#c7e2fc"/><path d="m26 10h28v16h-28z" fill="#4d5d7a"/><path d="m26 10v12.751c1.134.159 2.302.249 3.5.249 9.986 0 18.102-5.778 18.465-13z" fill="#8892a0"/><path d="m30 14h20v6h-20z" fill="#ebf7fe"/><path d="m56 46h-4c-1.105 0-2 .895-2 2 0 1.105.895 2 2 2h4c1.105 0 2-.895 2-2 0-1.105-.895-2-2-2z" fill="#f7d881"/><path d="m56 38h-4c-1.105 0-2 .895-2 2 0 1.105.895 2 2 2h4c1.105 0 2-.895 2-2 0-1.105-.895-2-2-2z" fill="#78b75b"/><g fill="#fff"><circle cx="28" cy="32" r="2"/><circle cx="36" cy="32" r="2"/><circle cx="44" cy="32" r="2"/><circle cx="28" cy="40" r="2"/><circle cx="36" cy="40" r="2"/><circle cx="44" cy="40" r="2"/><circle cx="28" cy="48" r="2"/><circle cx="36" cy="48" r="2"/><circle cx="44" cy="48" r="2"/></g><path d="m58 55h-48c-2.757 0-5-2.243-5-5v-28c0-2.757 2.243-5 5-5v2c-1.654 0-3 1.346-3 3v28c0 1.654 1.346 3 3 3h48c1.654 0 3-1.346 3-3v-28c0-1.654-1.346-3-3-3h-4v-2h4c2.757 0 5 2.243 5 5v28c0 2.757-2.243 5-5 5z"/><path d="m54 27h-28c-.552 0-1-.447-1-1v-16c0-.553.448-1 1-1h28c.552 0 1 .447 1 1v16c0 .553-.448 1-1 1zm-27-2h26v-14h-26z"/><path d="m20 47h-8c-1.654 0-3-1.346-3-3v-30c0-1.654 1.346-3 3-3h8c1.654 0 3 1.346 3 3v30c0 1.654-1.346 3-3 3zm-8-34c-.551 0-1 .448-1 1v30c0 .552.449 1 1 1h8c.551 0 1-.448 1-1v-30c0-.552-.449-1-1-1z"/><path d="m22 17h4v2h-4z"/><path d="m28 35c-1.654 0-3-1.346-3-3s1.346-3 3-3 3 1.346 3 3-1.346 3-3 3zm0-4c-.551 0-1 .448-1 1s.449 1 1 1 1-.448 1-1-.449-1-1-1z"/><path d="m36 35c-1.654 0-3-1.346-3-3s1.346-3 3-3 3 1.346 3 3-1.346 3-3 3zm0-4c-.551 0-1 .448-1 1s.449 1 1 1 1-.448 1-1-.449-1-1-1z"/><path d="m44 35c-1.654 0-3-1.346-3-3s1.346-3 3-3 3 1.346 3 3-1.346 3-3 3zm0-4c-.551 0-1 .448-1 1s.449 1 1 1 1-.448 1-1-.449-1-1-1z"/><path d="m28 43c-1.654 0-3-1.346-3-3s1.346-3 3-3 3 1.346 3 3-1.346 3-3 3zm0-4c-.551 0-1 .448-1 1s.449 1 1 1 1-.448 1-1-.449-1-1-1z"/><path d="m36 43c-1.654 0-3-1.346-3-3s1.346-3 3-3 3 1.346 3 3-1.346 3-3 3zm0-4c-.551 0-1 .448-1 1s.449 1 1 1 1-.448 1-1-.449-1-1-1z"/><path d="m44 43c-1.654 0-3-1.346-3-3s1.346-3 3-3 3 1.346 3 3-1.346 3-3 3zm0-4c-.551 0-1 .448-1 1s.449 1 1 1 1-.448 1-1-.449-1-1-1z"/><path d="m28 51c-1.654 0-3-1.346-3-3s1.346-3 3-3 3 1.346 3 3-1.346 3-3 3zm0-4c-.551 0-1 .448-1 1s.449 1 1 1 1-.448 1-1-.449-1-1-1z"/><path d="m36 51c-1.654 0-3-1.346-3-3s1.346-3 3-3 3 1.346 3 3-1.346 3-3 3zm0-4c-.551 0-1 .448-1 1s.449 1 1 1 1-.448 1-1-.449-1-1-1z"/><path d="m44 51c-1.654 0-3-1.346-3-3s1.346-3 3-3 3 1.346 3 3-1.346 3-3 3zm0-4c-.551 0-1 .448-1 1s.449 1 1 1 1-.448 1-1-.449-1-1-1z"/><path d="m56 51h-4c-1.654 0-3-1.346-3-3s1.346-3 3-3h4c1.654 0 3 1.346 3 3s-1.346 3-3 3zm-4-4c-.551 0-1 .448-1 1s.449 1 1 1h4c.551 0 1-.448 1-1s-.449-1-1-1z"/><path d="m56 43h-4c-1.654 0-3-1.346-3-3s1.346-3 3-3h4c1.654 0 3 1.346 3 3s-1.346 3-3 3zm-4-4c-.551 0-1 .448-1 1s.449 1 1 1h4c.551 0 1-.448 1-1s-.449-1-1-1z"/><path d="m50 21h-20c-.552 0-1-.447-1-1v-6c0-.553.448-1 1-1h20c.552 0 1 .447 1 1v6c0 .553-.448 1-1 1zm-19-2h18v-4h-18z"/><path d="m12 51h-6c-2.757 0-5-2.243-5-5v-18c0-2.757 2.243-5 5-5v2c-1.654 0-3 1.346-3 3v18c0 1.654 1.346 3 3 3h6c1.654 0 3-1.346 3-3h2c0 2.757-2.243 5-5 5z"/><path d="m19 20h-2v-4h-4v-2h5c.552 0 1 .447 1 1z"/></svg>