<?xml version="1.0" encoding="utf-8"?>
<!-- Generator: Adobe Illustrator 23.0.0, SVG Export Plug-In . SVG Version: 6.00 Build 0)  -->
<svg version="1.1" xmlns="http://www.w3.org/2000/svg" xmlns:xlink="http://www.w3.org/1999/xlink" x="0px" y="0px"
	 viewBox="0 0 48 48" enable-background="new 0 0 48 48" xml:space="preserve">
<g id="_x5F_GRID" display="none">
	<g display="inline">
		<g>
			
				<rect x="22" y="-22" transform="matrix(6.123234e-17 -1 1 6.123234e-17 22 26)" opacity="0.2" fill="#FF00FF" width="4" height="48"/>
			
				<rect x="22.5" y="-22.5" transform="matrix(6.123234e-17 -1 1 6.123234e-17 22.5 25.5)" opacity="0.3" fill="#FF00FF" width="3" height="48"/>
		</g>
		<g>
			
				<rect x="22" y="22" transform="matrix(-1.836970e-16 1 -1 -1.836970e-16 70 22)" opacity="0.2" fill="#FF00FF" width="4" height="48"/>
			
				<rect x="22.5" y="22.5" transform="matrix(-1.836970e-16 1 -1 -1.836970e-16 70.5 22.5)" opacity="0.3" fill="#FF00FF" width="3" height="48"/>
		</g>
		<g>
			<rect x="44" opacity="0.2" fill="#FF00FF" width="4" height="48"/>
			<rect x="45" opacity="0.3" fill="#FF00FF" width="3" height="48"/>
		</g>
		<g>
			<rect transform="matrix(-1 -1.224647e-16 1.224647e-16 -1 4 48)" opacity="0.2" fill="#FF00FF" width="4" height="48"/>
			<rect transform="matrix(-1 -1.224647e-16 1.224647e-16 -1 3 48)" opacity="0.3" fill="#FF00FF" width="3" height="48"/>
		</g>
	</g>
</g>
<g id="ICONS">
	<path fill="#FFFFFF" stroke="#979593" stroke-miterlimit="10" d="M42.5,5.5H41c-0.2761,0-0.5-0.2239-0.5-0.5V4.5
		c0-0.5523-0.4477-1-1-1h-25c-0.5523,0-1,0.4477-1,1v39c0,0.5523,0.4477,1,1,1h25c0.5523,0,1-0.4477,1-1V14
		c0-0.2761,0.2239-0.5,0.5-0.5h1.5c0.5523,0,1-0.4477,1-1v-6C43.5,5.9477,43.0523,5.5,42.5,5.5z"/>
	<g>
		<path fill="#979593" d="M13.5,9h-2C11.2239,9,11,8.7761,11,8.5v0C11,8.2239,11.2239,8,11.5,8h2C13.7761,8,14,8.2239,14,8.5v0
			C14,8.7761,13.7761,9,13.5,9z"/>
		<path fill="#979593" d="M13.5,12h-2c-0.2761,0-0.5-0.2239-0.5-0.5v0c0-0.2761,0.2239-0.5,0.5-0.5h2c0.2761,0,0.5,0.2239,0.5,0.5v0
			C14,11.7761,13.7761,12,13.5,12z"/>
		<path fill="#979593" d="M13.5,15h-2c-0.2761,0-0.5-0.2239-0.5-0.5v0c0-0.2761,0.2239-0.5,0.5-0.5h2c0.2761,0,0.5,0.2239,0.5,0.5v0
			C14,14.7761,13.7761,15,13.5,15z"/>
	</g>
	<path fill="#979593" d="M43,25h-2v-9h2c0.5523,0,1,0.4477,1,1v7C44,24.5523,43.5523,25,43,25z"/>
	<path fill="#979593" d="M43,36h-2v-9h2c0.5523,0,1,0.4477,1,1v7C44,35.5523,43.5523,36,43,36z"/>
	<g>
		<path fill="#C8C6C4" d="M36.5,21h-14c-0.2761,0-0.5-0.2239-0.5-0.5l0,0c0-0.2761,0.2239-0.5,0.5-0.5h14
			c0.2761,0,0.5,0.2239,0.5,0.5l0,0C37,20.7761,36.7761,21,36.5,21z"/>
		<path fill="#C8C6C4" d="M36.5,24h-14c-0.2761,0-0.5-0.2239-0.5-0.5l0,0c0-0.2761,0.2239-0.5,0.5-0.5h14
			c0.2761,0,0.5,0.2239,0.5,0.5l0,0C37,23.7761,36.7761,24,36.5,24z"/>
		<path fill="#C8C6C4" d="M36.5,27h-14c-0.2761,0-0.5-0.2239-0.5-0.5l0,0c0-0.2761,0.2239-0.5,0.5-0.5h14
			c0.2761,0,0.5,0.2239,0.5,0.5l0,0C37,26.7761,36.7761,27,36.5,27z"/>
		<path fill="#C8C6C4" d="M36.5,30h-14c-0.2761,0-0.5-0.2239-0.5-0.5l0,0c0-0.2761,0.2239-0.5,0.5-0.5h14
			c0.2761,0,0.5,0.2239,0.5,0.5l0,0C37,29.7761,36.7761,30,36.5,30z"/>
		<path fill="#C8C6C4" d="M36.5,33h-14c-0.2761,0-0.5-0.2239-0.5-0.5l0,0c0-0.2761,0.2239-0.5,0.5-0.5h14
			c0.2761,0,0.5,0.2239,0.5,0.5l0,0C37,32.7761,36.7761,33,36.5,33z"/>
	</g>
	<g>
		<path fill="#7719AA" d="M6,37h18c1.1046,0,2-0.8954,2-2V17c0-1.1046-0.8954-2-2-2H6c-1.1046,0-2,0.8954-2,2v18
			C4,36.1046,4.8954,37,6,37z"/>
	</g>
	<g>
		<g>
			<path fill="#F9F7F7" d="M9.2031,20h3.2552l5.7604,8.7031c0-0.0156-0.0312-8.7031-0.0312-8.7031h2.5781v12h-3.1198l-5.8374-8.5557
				C11.8549,23.8125,11.8781,32,11.8781,32h-2.675V20z"/>
		</g>
	</g>
</g>
<g id="CENTERED_x5F_MARGINS" display="none">
</g>
<g id="_x5F_FILE_x5F_CENTER" display="none">
</g>
<g id="_x5F_RIGHT_x5F_MARGIN" display="none" opacity="0.5">
	<g display="inline">
		<rect x="40" fill="#00FFFF" width="8" height="48"/>
	</g>
	<g display="inline">
		<rect x="40" opacity="0.3" fill="#00FFFF" width="8" height="48"/>
	</g>
</g>
<g id="_x5F_THREE_x5F_HEIGHTS" display="none">
	<rect x="24" y="17" display="inline" opacity="0.2" fill="#F7931E" width="24" height="23"/>
</g>
<g id="FOLDER_x5F_INCIDACTORS" display="none">
</g>
</svg>
