<?xml version="1.0" encoding="utf-8"?>
<!-- Generator: Adobe Illustrator 23.0.0, SVG Export Plug-In . SVG Version: 6.00 Build 0)  -->
<svg version="1.1" xmlns="http://www.w3.org/2000/svg" xmlns:xlink="http://www.w3.org/1999/xlink" x="0px" y="0px"
	 viewBox="0 0 48 48" enable-background="new 0 0 48 48" xml:space="preserve">
<g id="_x5F_GRID" display="none">
	<g display="inline">
		<g>
			
				<rect x="22" y="-22" transform="matrix(6.123234e-17 -1 1 6.123234e-17 22 26)" opacity="0.2" fill="#FF00FF" width="4" height="48"/>
			
				<rect x="22.5" y="-22.5" transform="matrix(6.123234e-17 -1 1 6.123234e-17 22.5 25.5)" opacity="0.3" fill="#FF00FF" width="3" height="48"/>
		</g>
		<g>
			
				<rect x="22" y="22" transform="matrix(-1.836970e-16 1 -1 -1.836970e-16 70 22)" opacity="0.2" fill="#FF00FF" width="4" height="48"/>
			
				<rect x="22.5" y="22.5" transform="matrix(-1.836970e-16 1 -1 -1.836970e-16 70.5 22.5)" opacity="0.3" fill="#FF00FF" width="3" height="48"/>
		</g>
		<g>
			<rect x="44" opacity="0.2" fill="#FF00FF" width="4" height="48"/>
			<rect x="45" opacity="0.3" fill="#FF00FF" width="3" height="48"/>
		</g>
		<g>
			<rect transform="matrix(-1 -1.224647e-16 1.224647e-16 -1 4 48)" opacity="0.2" fill="#FF00FF" width="4" height="48"/>
			<rect transform="matrix(-1 -1.224647e-16 1.224647e-16 -1 3 48)" opacity="0.3" fill="#FF00FF" width="3" height="48"/>
		</g>
	</g>
</g>
<g id="ICONS">
	<path fill="#FFFFFF" stroke="#979593" stroke-miterlimit="10" d="M42.5,44.5h-26c-0.5523,0-1-0.4477-1-1v-37l24.6667-2l3.3333,2v37
		C43.5,44.0523,43.0523,44.5,42.5,44.5z"/>
	<path fill="#F5BA9D" d="M28,12c3.866,0,7,3.134,7,7h-7V12z"/>
	<path fill="#C8C8C8" d="M35,20c0,4.4183-3.5817,8-8,8s-8-3.5817-8-8s3.5817-8,8-8v8H35z"/>
	<rect x="24" y="34" fill="#C8C8C8" width="13" height="1"/>
	<rect x="24" y="31" fill="#C8C8C8" width="13" height="1"/>
	<rect x="24" y="37" fill="#C8C8C8" width="13" height="1"/>
	<linearGradient id="SVGID_1_" gradientUnits="userSpaceOnUse" x1="12.999" y1="8.2195" x2="40.001" y2="42.7805">
		<stop  offset="0" style="stop-color:#FFFFFF;stop-opacity:0"/>
		<stop  offset="0.2264" style="stop-color:#FCFCFC;stop-opacity:0.0226"/>
		<stop  offset="0.3626" style="stop-color:#F4F4F4;stop-opacity:0.0363"/>
		<stop  offset="0.475" style="stop-color:#E6E6E6;stop-opacity:0.0475"/>
		<stop  offset="0.5744" style="stop-color:#D1D1D1;stop-opacity:0.0574"/>
		<stop  offset="0.6652" style="stop-color:#B7B7B7;stop-opacity:0.0665"/>
		<stop  offset="0.7498" style="stop-color:#979797;stop-opacity:0.075"/>
		<stop  offset="0.8297" style="stop-color:#707070;stop-opacity:0.083"/>
		<stop  offset="0.9057" style="stop-color:#444444;stop-opacity:0.0906"/>
		<stop  offset="0.9761" style="stop-color:#121212;stop-opacity:0.0976"/>
		<stop  offset="1" style="stop-color:#000000;stop-opacity:0.1"/>
	</linearGradient>
	<rect x="12" y="9" fill="url(#SVGID_1_)" width="29" height="33"/>
	<path fill="#FFFFFF" stroke="#979593" stroke-miterlimit="10" d="M39.5,41.5h-26c-0.5523,0-1-0.4477-1-1v-32h28v32
		C40.5,41.0523,40.0523,41.5,39.5,41.5z"/>
	<path fill="#C43E1C" d="M40.5858,3H13c-0.5523,0-1,0.4477-1,1v5h1h28V7.2071c0-0.4455,0.5386-0.6685,0.8536-0.3536L44,9V6.4142
		c0-0.2652-0.1054-0.5196-0.2929-0.7071l-2.4142-2.4142C41.1054,3.1054,40.851,3,40.5858,3z"/>
	<path fill="#C8C6C4" d="M20,34h15.5c0.2764,0,0.5-0.2236,0.5-0.5S35.7764,33,35.5,33H20V34z"/>
	<path fill="#C8C6C4" d="M35.5,36H32H20h-3.5c-0.2764,0-0.5,0.2236-0.5,0.5s0.2236,0.5,0.5,0.5H20h12h3.5
		c0.2764,0,0.5-0.2236,0.5-0.5S35.7764,36,35.5,36z"/>
	<path fill="#F5BA9D" d="M30,15c3.3137,0,6,2.6863,6,6h-6V15z"/>
	<path fill="#C8C6C4" d="M36,23c0,4.4183-3.5817,8-8,8c-4.4183,0-8-3.5817-8-8s3.5817-8,8-8v8H36z"/>
	<g>
		<path fill="#C43E1C" d="M6,37h18c1.1046,0,2-0.8954,2-2V17c0-1.1046-0.8954-2-2-2H6c-1.1046,0-2,0.8954-2,2v18
			C4,36.1046,4.8954,37,6,37z"/>
	</g>
	<g>
		<g>
			<path fill="#F9F7F7" d="M15.6683,20c1.4003,0,2.4726,0.3209,3.2161,0.9619C19.6288,21.6037,20,22.5331,20,23.749
				c0,0.7807-0.1837,1.4758-0.5511,2.0842c-0.3683,0.6074-0.8915,1.08-1.5696,1.4177c-0.679,0.3377-1.4647,0.506-2.3592,0.506
				H13.289V32H11V20H15.6683z M13.289,25.9247h1.9697c0.7694,0,1.3493-0.1772,1.7417-0.5316s0.5886-0.8713,0.5886-1.5525
				c0-1.3212-0.7521-1.9828-2.2563-1.9828H13.289V25.9247z"/>
		</g>
	</g>
</g>
<g id="CENTERED_x5F_MARGINS" display="none">
</g>
<g id="_x5F_FILE_x5F_CENTER" display="none">
</g>
<g id="_x5F_RIGHT_x5F_MARGIN" display="none" opacity="0.5">
	<g display="inline">
		<rect x="36.5" fill="#00FFFF" width="12" height="48"/>
	</g>
	<g display="inline">
		<rect x="36.5" opacity="0.3" fill="#00FFFF" width="12" height="48"/>
	</g>
</g>
<g id="_x5F_THREE_x5F_HEIGHTS" display="none">
	<rect x="24" y="18" display="inline" opacity="0.2" fill="#F7931E" width="24" height="23"/>
</g>
<g id="FOLDER_x5F_INCIDACTORS" display="none">
</g>
</svg>
