<?xml version="1.0" encoding="utf-8"?>
<!-- Generator: Adobe Illustrator 23.0.0, SVG Export Plug-In . SVG Version: 6.00 Build 0)  -->
<svg version="1.1" xmlns="http://www.w3.org/2000/svg" xmlns:xlink="http://www.w3.org/1999/xlink" x="0px" y="0px"
	 viewBox="0 0 48 48" enable-background="new 0 0 48 48" xml:space="preserve">
<g id="_x5F_GRID" display="none">
	<g display="inline">
		<g>
			
				<rect x="22" y="-22" transform="matrix(6.123234e-17 -1 1 6.123234e-17 22 26)" opacity="0.2" fill="#FF00FF" width="4" height="48"/>
			
				<rect x="22.5" y="-22.5" transform="matrix(6.123234e-17 -1 1 6.123234e-17 22.5 25.5)" opacity="0.3" fill="#FF00FF" width="3" height="48"/>
		</g>
		<g>
			
				<rect x="22" y="22" transform="matrix(-1.836970e-16 1 -1 -1.836970e-16 70 22)" opacity="0.2" fill="#FF00FF" width="4" height="48"/>
			
				<rect x="22.5" y="22.5" transform="matrix(-1.836970e-16 1 -1 -1.836970e-16 70.5 22.5)" opacity="0.3" fill="#FF00FF" width="3" height="48"/>
		</g>
		<g>
			<rect x="44" opacity="0.2" fill="#FF00FF" width="4" height="48"/>
			<rect x="45" opacity="0.3" fill="#FF00FF" width="3" height="48"/>
		</g>
		<g>
			<rect transform="matrix(-1 -1.224647e-16 1.224647e-16 -1 4 48)" opacity="0.2" fill="#FF00FF" width="4" height="48"/>
			<rect transform="matrix(-1 -1.224647e-16 1.224647e-16 -1 3 48)" opacity="0.3" fill="#FF00FF" width="3" height="48"/>
		</g>
	</g>
</g>
<g id="ICONS">
	<path fill="#FFFFFF" stroke="#979593" stroke-miterlimit="10" d="M33.0858,3.5H13.5c-0.5523,0-1,0.4477-1,1v39
		c0,0.5523,0.4477,1,1,1h29c0.5523,0,1-0.4477,1-1V13.9142c0-0.2652-0.1054-0.5196-0.2929-0.7071l-9.4142-9.4142
		C33.6054,3.6054,33.351,3.5,33.0858,3.5z"/>
	<path fill="none" stroke="#979593" stroke-miterlimit="10" d="M33.5,3.5v9c0,0.5523,0.4477,1,1,1h9"/>
	<path fill="#C8C6C4" d="M39.5,21h-4c-0.2761,0-0.5-0.2239-0.5-0.5l0,0c0-0.2761,0.2239-0.5,0.5-0.5h4c0.2761,0,0.5,0.2239,0.5,0.5
		l0,0C40,20.7761,39.7761,21,39.5,21z"/>
	<path fill="#C8C6C4" d="M39.5,24h-4c-0.2761,0-0.5-0.2239-0.5-0.5l0,0c0-0.2761,0.2239-0.5,0.5-0.5h4c0.2761,0,0.5,0.2239,0.5,0.5
		l0,0C40,23.7761,39.7761,24,39.5,24z"/>
	<path fill="#C8C6C4" d="M39.5,27h-4c-0.2761,0-0.5-0.2239-0.5-0.5l0,0c0-0.2761,0.2239-0.5,0.5-0.5h4c0.2761,0,0.5,0.2239,0.5,0.5
		l0,0C40,26.7761,39.7761,27,39.5,27z"/>
	<path fill="#C8C6C4" d="M39.5,30h-4c-0.2761,0-0.5-0.2239-0.5-0.5l0,0c0-0.2761,0.2239-0.5,0.5-0.5h4c0.2761,0,0.5,0.2239,0.5,0.5
		l0,0C40,29.7761,39.7761,30,39.5,30z"/>
	<path fill="#C8C6C4" d="M39.5,33h-4c-0.2761,0-0.5-0.2239-0.5-0.5l0,0c0-0.2761,0.2239-0.5,0.5-0.5h4c0.2761,0,0.5,0.2239,0.5,0.5
		l0,0C40,32.7761,39.7761,33,39.5,33z"/>
	<path fill="#C8C6C4" d="M33.5,21h-4c-0.2761,0-0.5-0.2239-0.5-0.5l0,0c0-0.2761,0.2239-0.5,0.5-0.5h4c0.2761,0,0.5,0.2239,0.5,0.5
		l0,0C34,20.7761,33.7761,21,33.5,21z"/>
	<path fill="#C8C6C4" d="M33.5,24h-4c-0.2761,0-0.5-0.2239-0.5-0.5l0,0c0-0.2761,0.2239-0.5,0.5-0.5h4c0.2761,0,0.5,0.2239,0.5,0.5
		l0,0C34,23.7761,33.7761,24,33.5,24z"/>
	<path fill="#C8C6C4" d="M33.5,27h-4c-0.2761,0-0.5-0.2239-0.5-0.5l0,0c0-0.2761,0.2239-0.5,0.5-0.5h4c0.2761,0,0.5,0.2239,0.5,0.5
		l0,0C34,26.7761,33.7761,27,33.5,27z"/>
	<path fill="#C8C6C4" d="M33.5,30h-4c-0.2761,0-0.5-0.2239-0.5-0.5l0,0c0-0.2761,0.2239-0.5,0.5-0.5h4c0.2761,0,0.5,0.2239,0.5,0.5
		l0,0C34,29.7761,33.7761,30,33.5,30z"/>
	<path fill="#C8C6C4" d="M33.5,33h-4c-0.2761,0-0.5-0.2239-0.5-0.5l0,0c0-0.2761,0.2239-0.5,0.5-0.5h4c0.2761,0,0.5,0.2239,0.5,0.5
		l0,0C34,32.7761,33.7761,33,33.5,33z"/>
	<path fill="#C8C6C4" d="M27.5,21h-4c-0.2761,0-0.5-0.2239-0.5-0.5l0,0c0-0.2761,0.2239-0.5,0.5-0.5h4c0.2761,0,0.5,0.2239,0.5,0.5
		l0,0C28,20.7761,27.7761,21,27.5,21z"/>
	<path fill="#C8C6C4" d="M27.5,24h-4c-0.2761,0-0.5-0.2239-0.5-0.5l0,0c0-0.2761,0.2239-0.5,0.5-0.5h4c0.2761,0,0.5,0.2239,0.5,0.5
		l0,0C28,23.7761,27.7761,24,27.5,24z"/>
	<path fill="#C8C6C4" d="M27.5,27h-4c-0.2761,0-0.5-0.2239-0.5-0.5l0,0c0-0.2761,0.2239-0.5,0.5-0.5h4c0.2761,0,0.5,0.2239,0.5,0.5
		l0,0C28,26.7761,27.7761,27,27.5,27z"/>
	<path fill="#C8C6C4" d="M27.5,30h-4c-0.2761,0-0.5-0.2239-0.5-0.5l0,0c0-0.2761,0.2239-0.5,0.5-0.5h4c0.2761,0,0.5,0.2239,0.5,0.5
		l0,0C28,29.7761,27.7761,30,27.5,30z"/>
	<path fill="#C8C6C4" d="M27.5,33h-4c-0.2761,0-0.5-0.2239-0.5-0.5l0,0c0-0.2761,0.2239-0.5,0.5-0.5h4c0.2761,0,0.5,0.2239,0.5,0.5
		l0,0C28,32.7761,27.7761,33,27.5,33z"/>
	<g>
		<path fill="#107C41" d="M6,37h18c1.1046,0,2-0.8954,2-2V17c0-1.1046-0.8954-2-2-2H6c-1.1046,0-2,0.8954-2,2v18
			C4,36.1046,4.8954,37,6,37z"/>
	</g>
	<g>
		<g>
			<path fill="#F9F7F7" d="M9.5176,32l3.8516-6.0172L9.8408,20h2.8389l1.9258,3.8248c0.1777,0.3623,0.2988,0.633,0.3652,0.8112
				h0.0254c0.127-0.2904,0.2598-0.572,0.3984-0.8447L17.4531,20h2.6055l-3.6191,5.9493L20.1504,32h-2.7725l-2.2246-4.2008
				c-0.0947-0.1565-0.1826-0.3436-0.2656-0.5602h-0.0332c-0.0381,0.1339-0.124,0.315-0.2568,0.5434L12.3066,32H9.5176z"/>
		</g>
	</g>
</g>
<g id="CENTERED_x5F_MARGINS" display="none">
</g>
<g id="_x5F_FILE_x5F_CENTER" display="none">
</g>
<g id="_x5F_RIGHT_x5F_MARGIN" display="none" opacity="0.5">
	<g display="inline">
		<rect x="40" fill="#00FFFF" width="8" height="48"/>
	</g>
	<g display="inline">
		<rect x="40" opacity="0.3" fill="#00FFFF" width="8" height="48"/>
	</g>
</g>
<g id="_x5F_THREE_x5F_HEIGHTS" display="none">
	<rect x="24" y="18" display="inline" opacity="0.2" fill="#F7931E" width="24" height="23"/>
</g>
<g id="FOLDER_x5F_INCIDACTORS" display="none">
</g>
</svg>
